<?xml version="1.0" encoding="UTF-8"?>
<svg width="63px" height="70px" viewBox="0 0 63 70" version="1.1" xmlns="http://www.w3.org/2000/svg" xmlns:xlink="http://www.w3.org/1999/xlink">
    <g id="Page-1" stroke="none" stroke-width="1" fill="none" fill-rule="evenodd">
        <g id="Acme-Logo-#10" transform="translate(-144.000000, -90.000000)" fill="#5c7aff">
            <g id="On-White-Background" transform="translate(144.000000, 90.000000)">
                <g id="Symbol">
                    <path d="M16.0531,50.4596 L23.8061,42.7066 L39.5541,42.7066 L45.5931,63.9086 L16.0531,50.4596 Z M5.2041,23.5676 L19.6081,25.4006 L19.6081,40.6736 C19.6081,40.8216 19.6251,40.9666 19.6551,41.1056 L12.7971,47.9636 L5.2041,23.5676 Z M19.6081,21.3006 L6.6911,19.6566 L19.6081,6.7406 L19.6081,21.3006 Z M47.9881,11.2826 L36.0371,23.3926 L23.6751,21.8186 L23.6751,4.6916 L47.9881,11.2826 Z M23.6751,38.6396 L23.6751,25.9186 L35.1901,27.3846 L38.3961,38.6396 L23.6751,38.6396 Z M57.6231,38.6396 L42.6251,38.6396 L39.0591,26.1206 L50.9601,14.0606 L57.6231,38.6396 Z M49.1341,61.4916 L43.7831,42.7066 L57.1201,42.7066 L49.1341,61.4916 Z M62.2441,40.1416 L54.0041,9.7416 C53.8151,9.0446 53.2701,8.4996 52.5731,8.3106 L22.1731,0.0706 C21.5621,-0.0954 20.9091,0.0336 20.4061,0.4186 C20.3721,0.4436 20.3431,0.4726 20.3111,0.4996 L20.2031,0.3926 L0.8841,19.7126 L0.8861,19.7146 C0.8441,19.7566 0.8021,19.7976 0.7631,19.8436 C0.3191,20.3736 0.1741,21.0936 0.3801,21.7546 L9.5511,51.2226 C9.7241,51.7756 10.1231,52.2286 10.6511,52.4686 L47.9111,69.4336 C48.1811,69.5566 48.4681,69.6166 48.7531,69.6166 C49.2311,69.6166 49.7041,69.4476 50.0801,69.1236 C50.3221,68.9166 50.5031,68.6586 50.6221,68.3766 L50.6251,68.3786 L61.8621,41.9486 C61.8731,41.9346 61.8861,41.9226 61.8961,41.9086 C62.2811,41.4056 62.4091,40.7526 62.2441,40.1416 L62.2441,40.1416 Z" id="Fill-2"></path>
                </g>
            </g>
        </g>
    </g>
</svg>